<?xml version="1.0" encoding="UTF-8" standalone="no"?>
<!DOCTYPE svg PUBLIC "-//W3C//DTD SVG 1.1//EN" "http://www.w3.org/Graphics/SVG/1.1/DTD/svg11.dtd">
<svg xmlns="http://www.w3.org/2000/svg" version="1.1" viewBox="0 0 378 172">
<g stroke-width="2.00" fill="none" stroke-linecap="butt">
<path stroke="#3a3935" stroke-opacity="0.996" vector-effect="non-scaling-stroke" d="
  M 378.00 171.31
  L 301.25 171.46"
/>
<path stroke="#404438" stroke-opacity="0.988" vector-effect="non-scaling-stroke" d="
  M 301.25 171.46
  Q 288.13 171.10 275.00 171.28
  Q 260.31 171.49 254.99 171.47
  Q 167.25 171.24 79.50 171.25
  Q 78.34 171.25 78.25 171.75"
/>
<path stroke="#737376" stroke-opacity="0.996" vector-effect="non-scaling-stroke" d="
  M 78.04 81.00
  Q 103.65 81.10 129.25 80.76
  Q 129.47 80.75 129.50 80.54"
/>
<path stroke="#000000" vector-effect="non-scaling-stroke" d="
  M 86.05 87.39
  Q 88.54 87.75 91.01 87.34
  Q 91.63 87.24 91.00 87.24
  L 86.06 87.30
  Q 85.43 87.30 86.05 87.39"
/>
<path stroke="#5b5d57" stroke-opacity="0.996" vector-effect="non-scaling-stroke" d="
  M 85.25 163.96
  Q 84.80 164.33 85.04 164.60
  Q 85.18 164.75 85.51 164.75
  Q 191.10 165.10 296.69 164.72
  Q 326.72 164.61 369.94 164.94
  Q 370.92 164.94 370.75 164.04"
/>
<path stroke="#7b7b7c" stroke-opacity="0.996" vector-effect="non-scaling-stroke" d="
  M 47.25 36.29
  Q 47.23 36.78 46.56 36.81
  Q 41.02 37.08 38.75 37.00
  Q 37.22 36.95 37.00 36.29"
/>
<path stroke="#737376" stroke-opacity="0.996" vector-effect="non-scaling-stroke" d="
  M 44.96 40.25
  Q 44.63 40.42 44.42 40.70
  Q 44.25 40.93 44.24 41.34
  Q 43.65 56.79 44.24 71.91
  Q 44.32 74.15 46.54 74.44
  Q 51.41 75.06 56.25 74.46"
/>
<path stroke="#555654" stroke-opacity="0.996" vector-effect="non-scaling-stroke" d="
  M 56.25 74.46
  Q 63.34 72.99 63.96 65.75
  A 0.92 0.66 87.5 0 1 64.44 65.01
  Q 64.81 64.89 65.25 64.96"
/>
<path stroke="#676665" stroke-opacity="0.996" vector-effect="non-scaling-stroke" d="
  M 65.71 65.75
  Q 64.27 68.06 65.46 70.50"
/>
<path stroke="#555654" stroke-opacity="0.996" vector-effect="non-scaling-stroke" d="
  M 64.71 75.75
  Q 63.08 76.37 61.41 76.24
  Q 58.65 76.03 58.56 76.03
  Q 47.78 76.26 37.00 76.46"
/>
<path stroke="#1d201e" stroke-opacity="0.996" vector-effect="non-scaling-stroke" d="
  M 34.75 76.04
  Q 35.19 75.09 36.10 74.98
  Q 37.30 74.83 37.38 74.81
  Q 40.43 73.70 40.50 70.25
  Q 40.71 59.22 40.29 44.25"
/>
<path stroke="#7b7b7c" stroke-opacity="0.996" vector-effect="non-scaling-stroke" d="
  M 99.79 36.75
  Q 99.52 37.52 98.75 37.00
  Q 85.50 37.18 72.26 36.76
  A 0.32 0.19 5.3 0 1 71.92 36.52
  Q 71.96 36.39 72.25 36.29"
/>
<path stroke="#555654" stroke-opacity="0.996" vector-effect="non-scaling-stroke" d="
  M 100.71 43.50
  Q 99.63 45.43 100.29 47.75"
/>
<path stroke="#676665" stroke-opacity="0.996" vector-effect="non-scaling-stroke" d="
  M 96.50 41.79
  Q 95.31 38.99 92.00 39.21"
/>
<path stroke="#2f2e2d" stroke-opacity="0.996" vector-effect="non-scaling-stroke" d="
  M 92.00 39.21
  Q 85.34 37.58 79.81 39.06
  Q 77.71 39.63 78.21 42.00"
/>
<path stroke="#737376" stroke-opacity="0.996" vector-effect="non-scaling-stroke" d="
  M 84.50 54.54
  Q 88.27 55.53 88.75 51.71"
/>
<path stroke="#676665" stroke-opacity="0.996" vector-effect="non-scaling-stroke" d="
  M 91.50 51.46
  Q 90.36 56.13 91.50 60.79"
/>
<path stroke="#737376" stroke-opacity="0.996" vector-effect="non-scaling-stroke" d="
  M 89.50 61.79
  Q 89.32 58.33 86.16 57.36
  Q 86.10 57.35 85.39 57.02
  Q 84.79 56.74 84.50 57.46"
/>
<path stroke="#676665" stroke-opacity="0.996" vector-effect="non-scaling-stroke" d="
  M 78.21 70.75
  Q 77.63 72.37 78.58 73.44
  Q 79.23 74.17 80.78 74.39
  Q 86.32 75.21 93.06 74.06
  Q 98.03 73.21 98.50 68.71"
/>
<path stroke="#555654" stroke-opacity="0.996" vector-effect="non-scaling-stroke" d="
  M 100.96 69.75
  L 100.24 75.31
  A 1.00 0.91 -86.3 0 1 99.34 76.18
  L 71.96 76.50"
/>
<path stroke="#676665" stroke-opacity="0.996" vector-effect="non-scaling-stroke" d="
  M 68.29 75.75
  Q 69.08 75.12 71.19 74.69
  Q 74.53 74.00 73.50 70.46"
/>
<path stroke="#555654" stroke-opacity="0.996" vector-effect="non-scaling-stroke" d="
  M 73.54 42.00
  Q 74.30 41.75 73.97 41.17
  Q 73.76 40.79 73.71 40.67
  Q 72.93 38.83 70.75 39.04"
/>
<path stroke="#979592" stroke-opacity="0.992" vector-effect="non-scaling-stroke" d="
  M 92.00 39.21
  Q 91.59 39.19 91.50 39.46"
/>
<path stroke="#7b7b7c" stroke-opacity="0.996" vector-effect="non-scaling-stroke" d="
  M 157.50 37.04
  Q 152.96 37.30 148.50 36.54"
/>
<path stroke="#555654" stroke-opacity="0.996" vector-effect="non-scaling-stroke" d="
  M 186.00 39.29
  Q 183.13 40.01 184.25 43.04"
/>
<path stroke="#1d201e" stroke-opacity="0.996" vector-effect="non-scaling-stroke" d="
  M 172.96 65.50
  Q 173.10 65.04 172.94 64.81
  Q 166.07 55.40 159.46 45.80
  Q 159.20 45.42 158.75 45.54"
/>
<path stroke="#7b7b7c" stroke-opacity="0.996" vector-effect="non-scaling-stroke" d="
  M 157.50 44.21
  Q 157.45 42.98 156.68 42.16
  Q 156.31 41.76 156.29 42.32
  Q 155.79 55.33 155.99 68.36
  Q 155.99 68.48 155.92 70.14
  Q 155.76 74.58 160.25 74.97
  A 1.16 0.66 65.4 0 1 160.95 75.47
  Q 161.21 75.83 161.71 75.75"
/>
<path stroke="#464944" stroke-opacity="0.996" vector-effect="non-scaling-stroke" d="
  M 160.25 76.46
  Q 154.71 75.54 149.25 76.71"
/>
<path stroke="#2f2e2d" stroke-opacity="0.996" vector-effect="non-scaling-stroke" d="
  M 147.75 76.04
  Q 147.90 74.86 149.06 74.88
  Q 151.76 74.90 152.87 73.04
  Q 153.48 72.00 153.57 69.33
  Q 153.80 61.82 153.75 49.75
  Q 153.73 44.79 153.00 41.21"
/>
<path stroke="#676665" stroke-opacity="0.996" vector-effect="non-scaling-stroke" d="
  M 153.00 41.21
  Q 152.99 39.50 151.46 39.75"
/>
<path stroke="#1d201e" stroke-opacity="0.996" vector-effect="non-scaling-stroke" d="
  M 157.50 37.04
  L 179.00 67.29"
/>
<path stroke="#676665" stroke-opacity="0.996" vector-effect="non-scaling-stroke" d="
  M 179.00 67.29
  Q 181.09 71.03 180.71 67.75"
/>
<path stroke="#464944" stroke-opacity="0.996" vector-effect="non-scaling-stroke" d="
  M 180.29 42.00
  Q 181.64 39.23 178.75 39.21"
/>
<path stroke="#979592" stroke-opacity="0.992" vector-effect="non-scaling-stroke" d="
  M 153.00 41.21
  L 152.29 41.25"
/>
<path stroke="#737376" stroke-opacity="0.996" vector-effect="non-scaling-stroke" d="
  M 243.25 36.29
  Q 243.63 36.62 243.24 36.68
  Q 239.10 37.32 234.94 36.81
  Q 234.20 36.72 234.25 36.29"
/>
<path stroke="#464944" stroke-opacity="0.996" vector-effect="non-scaling-stroke" d="
  M 262.04 67.50
  Q 263.48 73.29 268.92 75.34
  A 0.43 0.16 86.0 0 1 269.08 75.69
  Q 269.09 75.84 269.29 76.00"
/>
<path stroke="#3a3935" stroke-opacity="0.996" vector-effect="non-scaling-stroke" d="
  M 268.25 76.46
  L 261.04 76.00"
/>
<path stroke="#2f2e2d" stroke-opacity="0.996" vector-effect="non-scaling-stroke" d="
  M 258.75 71.04
  Q 257.15 65.92 253.94 61.59
  Q 252.04 59.03 248.98 58.06
  Q 248.17 57.81 248.25 58.46"
/>
<path stroke="#555654" stroke-opacity="0.996" vector-effect="non-scaling-stroke" d="
  M 242.96 58.00
  Q 242.26 58.10 242.25 59.25
  Q 242.17 69.14 242.31 71.19
  Q 242.55 74.54 246.25 74.75
  Q 247.28 74.81 248.75 75.79"
/>
<path stroke="#464944" stroke-opacity="0.996" vector-effect="non-scaling-stroke" d="
  M 246.25 76.46
  Q 240.01 75.67 233.75 76.29"
/>
<path stroke="#555654" stroke-opacity="0.996" vector-effect="non-scaling-stroke" d="
  M 232.75 76.04
  Q 233.34 74.66 235.00 74.79
  Q 236.06 74.87 236.54 74.00"
/>
<path stroke="#464944" stroke-opacity="0.996" vector-effect="non-scaling-stroke" d="
  M 237.79 72.50
  Q 238.48 72.53 238.50 72.00
  Q 238.96 60.26 238.75 44.00
  Q 238.73 42.84 238.25 42.71"
/>
<path stroke="#2f2e2d" stroke-opacity="0.996" vector-effect="non-scaling-stroke" d="
  M 222.79 43.50
  Q 221.66 38.85 216.75 39.46"
/>
<path stroke="#737376" stroke-opacity="0.996" vector-effect="non-scaling-stroke" d="
  M 204.75 39.96
  Q 203.70 38.90 203.31 40.56
  Q 202.43 44.36 203.16 53.95
  Q 203.19 54.36 203.36 54.64
  Q 203.94 55.63 204.29 54.25"
/>
<path stroke="#1d201e" stroke-opacity="0.996" vector-effect="non-scaling-stroke" d="
  M 216.71 53.00
  Q 215.65 56.23 216.71 59.50"
/>
<path stroke="#1d201e" stroke-opacity="0.996" vector-effect="non-scaling-stroke" d="
  M 214.50 61.79
  Q 214.70 57.72 210.75 57.71"
/>
<path stroke="#737376" stroke-opacity="0.996" vector-effect="non-scaling-stroke" d="
  M 204.46 57.25
  Q 203.07 56.68 203.00 58.00
  Q 202.72 63.14 203.25 72.25
  Q 203.27 72.59 203.96 73.50"
/>
<path stroke="#555654" stroke-opacity="0.996" vector-effect="non-scaling-stroke" d="
  M 203.96 73.50
  Q 204.93 74.41 207.25 74.50
  Q 214.43 74.79 216.56 74.56
  Q 217.94 74.42 218.21 74.00"
/>
<path stroke="#555654" stroke-opacity="0.996" vector-effect="non-scaling-stroke" d="
  M 218.50 73.79
  Q 223.46 73.36 223.96 68.25"
/>
<path stroke="#464944" stroke-opacity="0.996" vector-effect="non-scaling-stroke" d="
  M 226.71 66.00
  Q 225.22 68.30 226.46 70.75"
/>
<path stroke="#464944" stroke-opacity="0.996" vector-effect="non-scaling-stroke" d="
  M 225.71 76.00
  Q 205.16 76.09 197.25 76.25
  Q 196.86 76.26 197.00 76.71"
/>
<path stroke="#3a3935" stroke-opacity="0.996" vector-effect="non-scaling-stroke" d="
  M 193.25 75.79
  L 197.25 74.38
  A 2.94 2.33 -5.8 0 0 199.01 72.67
  Q 199.78 70.02 199.54 67.00
  Q 199.30 64.00 199.25 67.75
  Q 199.21 70.36 198.79 71.25"
/>
<path stroke="#3a3935" stroke-opacity="0.996" vector-effect="non-scaling-stroke" d="
  M 198.79 43.50
  Q 200.26 40.44 197.25 39.29"
/>
<path stroke="#555654" stroke-opacity="0.996" vector-effect="non-scaling-stroke" d="
  M 131.25 49.96
  Q 130.86 50.13 131.00 50.47
  Q 135.17 60.44 139.31 70.44
  Q 140.82 74.08 145.71 75.75"
/>
<path stroke="#464944" stroke-opacity="0.996" vector-effect="non-scaling-stroke" d="
  M 143.25 76.71
  Q 143.34 76.14 142.75 76.15
  Q 137.75 76.25 132.75 76.15
  Q 132.16 76.14 132.25 76.71"
/>
<path stroke="#555654" stroke-opacity="0.996" vector-effect="non-scaling-stroke" d="
  M 130.75 76.04
  Q 131.82 74.50 133.75 74.75
  A 1.69 1.23 8.5 0 0 135.56 73.81
  Q 136.24 70.20 133.79 67.50"
/>
<path stroke="#2f2e2d" stroke-opacity="0.996" vector-effect="non-scaling-stroke" d="
  M 132.29 63.75
  Q 132.74 62.38 131.44 62.31
  Q 128.82 62.18 117.50 62.25
  A 1.34 0.84 12.9 0 0 116.61 62.56
  Q 116.26 62.94 116.25 63.50"
/>
<path stroke="#464944" stroke-opacity="0.996" vector-effect="non-scaling-stroke" d="
  M 116.25 63.50
  Q 113.39 67.70 112.75 72.75
  Q 112.52 74.59 115.69 74.81
  Q 116.90 74.90 117.25 75.96"
/>
<path stroke="#464944" stroke-opacity="0.996" vector-effect="non-scaling-stroke" d="
  M 116.00 76.46
  L 106.50 76.30
  A 0.25 0.21 0.0 0 0 106.25 76.51
  L 106.25 76.71"
/>
<path stroke="#555654" stroke-opacity="0.996" vector-effect="non-scaling-stroke" d="
  M 104.29 75.75
  Q 104.96 75.15 106.25 74.75
  Q 109.14 73.85 110.42 70.86
  Q 113.39 63.88 115.96 56.75"
/>
<path stroke="#2f2e2d" stroke-opacity="0.996" vector-effect="non-scaling-stroke" d="
  M 115.96 56.75
  Q 118.97 50.44 120.96 43.75"
/>
<path stroke="#858581" stroke-opacity="0.992" vector-effect="non-scaling-stroke" d="
  M 115.96 56.75
  L 115.50 56.71"
/>
<path stroke="#555654" stroke-opacity="0.996" vector-effect="non-scaling-stroke" d="
  M 243.21 40.50
  Q 242.33 41.18 242.31 42.06
  Q 242.19 48.53 242.25 55.02
  A 0.57 0.56 5.6 0 0 242.71 55.57
  Q 247.65 56.52 252.50 55.04"
/>
<path stroke="#2f2e2d" stroke-opacity="0.996" vector-effect="non-scaling-stroke" d="
  M 123.21 45.25
  Q 119.85 52.02 117.50 59.21"
/>
<path stroke="#464944" stroke-opacity="0.996" vector-effect="non-scaling-stroke" d="
  M 117.50 59.21
  Q 116.98 59.60 117.04 60.05
  A 0.80 0.55 0.1 0 0 117.75 60.54
  Q 123.74 61.05 130.30 60.51
  A 0.53 0.52 86.1 0 0 130.78 59.95
  Q 130.59 57.09 129.00 55.29"
/>
<path stroke="#737376" stroke-opacity="0.996" vector-effect="non-scaling-stroke" d="
  M 124.75 45.21
  Q 124.81 41.21 123.21 45.25"
/>
<path stroke="#a3a2a3" stroke-opacity="0.992" vector-effect="non-scaling-stroke" d="
  M 123.50 45.54
  Q 123.27 45.48 123.21 45.25"
/>
<path stroke="#767871" stroke-opacity="0.992" vector-effect="non-scaling-stroke" d="
  M 117.75 59.21
  L 117.50 59.21"
/>
<path stroke="#676665" stroke-opacity="0.996" vector-effect="non-scaling-stroke" d="
  M 163.75 112.96
  Q 164.02 114.14 165.26 114.42
  A 0.86 0.68 -60.4 0 0 166.04 114.10
  Q 166.84 113.14 168.04 112.75"
/>
<path stroke="#2f2e2d" stroke-opacity="0.996" vector-effect="non-scaling-stroke" d="
  M 168.71 115.00
  Q 167.63 117.86 168.71 120.75"
/>
<path stroke="#555654" stroke-opacity="0.996" vector-effect="non-scaling-stroke" d="
  M 164.75 119.04
  Q 162.71 113.69 156.96 113.50"
/>
<path stroke="#464944" stroke-opacity="0.996" vector-effect="non-scaling-stroke" d="
  M 150.25 113.29
  Q 145.22 114.03 142.81 117.81
  Q 136.45 127.79 140.19 139.81
  Q 142.15 146.14 149.25 149.04"
/>
<path stroke="#737376" stroke-opacity="0.996" vector-effect="non-scaling-stroke" d="
  M 149.25 149.04
  Q 159.65 152.25 165.75 143.50
  Q 166.14 142.94 165.75 142.71"
/>
<path stroke="#babdba" stroke-opacity="0.992" vector-effect="non-scaling-stroke" d="
  M 150.25 148.79
  Q 149.82 149.13 149.25 149.04"
/>
<path stroke="#676665" stroke-opacity="0.996" vector-effect="non-scaling-stroke" d="
  M 274.00 111.54
  L 274.00 111.74
  A 0.25 0.19 1.4 0 1 273.74 111.93
  Q 268.87 111.82 264.00 111.63
  Q 263.62 111.62 264.00 111.29"
/>
<path stroke="#737376" stroke-opacity="0.996" vector-effect="non-scaling-stroke" d="
  M 271.96 115.75
  Q 271.28 115.87 271.25 116.50
  Q 270.61 130.74 271.25 147.00
  Q 271.34 149.26 274.00 149.69
  Q 274.16 149.71 274.92 150.00
  Q 275.50 150.23 275.79 149.50"
/>
<path stroke="#555654" stroke-opacity="0.996" vector-effect="non-scaling-stroke" d="
  M 274.00 151.71
  Q 273.74 151.09 273.11 151.16
  Q 272.45 151.24 272.38 151.24
  Q 267.78 151.08 263.21 151.50"
/>
<path stroke="#3a3935" stroke-opacity="0.996" vector-effect="non-scaling-stroke" d="
  M 261.50 150.79
  Q 262.51 149.83 264.25 149.75
  Q 265.94 149.67 266.46 148.00"
/>
<path stroke="#555654" stroke-opacity="0.996" vector-effect="non-scaling-stroke" d="
  M 266.54 116.75
  Q 267.20 113.51 263.75 114.21"
/>
<path stroke="#979592" stroke-opacity="0.992" vector-effect="non-scaling-stroke" d="
  M 292.54 112.25
  Q 292.48 112.48 292.25 112.54"
/>
<path stroke="#676665" stroke-opacity="0.996" vector-effect="non-scaling-stroke" d="
  M 292.25 112.54
  Q 289.72 111.60 287.00 112.01
  Q 284.99 112.31 283.21 111.50"
/>
<path stroke="#6a6863" stroke-opacity="0.992" vector-effect="non-scaling-stroke" d="
  M 313.75 142.21
  Q 313.52 142.27 313.46 142.50"
/>
<path stroke="#2f2e2d" stroke-opacity="0.996" vector-effect="non-scaling-stroke" d="
  M 292.25 112.54
  L 313.46 142.50"
/>
<path stroke="#3a3935" stroke-opacity="0.996" vector-effect="non-scaling-stroke" d="
  M 313.46 142.50
  L 315.16 144.43
  Q 315.53 144.85 315.55 144.25
  Q 315.87 132.85 315.76 122.00
  Q 315.73 118.71 315.04 115.50"
/>
<path stroke="#676665" stroke-opacity="0.996" vector-effect="non-scaling-stroke" d="
  M 315.04 115.50
  Q 314.55 114.08 313.21 114.50"
/>
<path stroke="#676665" stroke-opacity="0.996" vector-effect="non-scaling-stroke" d="
  M 319.75 114.54
  Q 318.30 114.69 318.25 115.75
  Q 317.75 126.99 318.00 151.71"
/>
<path stroke="#2f2e2d" stroke-opacity="0.996" vector-effect="non-scaling-stroke" d="
  M 310.71 145.25
  Q 310.83 144.85 310.44 144.31
  Q 307.04 139.72 293.04 120.00"
/>
<path stroke="#737376" stroke-opacity="0.996" vector-effect="non-scaling-stroke" d="
  M 293.04 120.00
  L 290.71 117.37
  Q 290.31 116.92 290.31 117.55
  Q 290.20 131.28 290.25 145.00
  Q 290.27 150.32 295.25 149.79"
/>
<path stroke="#464944" stroke-opacity="0.996" vector-effect="non-scaling-stroke" d="
  M 294.00 151.46
  L 282.50 151.29"
/>
<path stroke="#676665" stroke-opacity="0.996" vector-effect="non-scaling-stroke" d="
  M 281.75 151.04
  Q 282.34 149.66 284.00 149.81
  Q 285.23 149.91 285.96 149.00"
/>
<path stroke="#555654" stroke-opacity="0.996" vector-effect="non-scaling-stroke" d="
  M 286.79 147.50
  Q 287.14 147.61 287.34 147.45
  Q 287.50 147.33 287.51 147.00
  Q 287.91 135.36 287.77 123.71
  Q 287.77 123.62 287.83 120.28
  Q 287.88 117.16 287.19 115.31
  Q 286.62 113.80 284.96 114.25"
/>
<path stroke="#676665" stroke-opacity="0.996" vector-effect="non-scaling-stroke" d="
  M 322.00 111.54
  Q 319.99 112.02 317.93 111.92
  Q 316.95 111.88 314.60 112.05
  Q 312.87 112.17 311.21 111.50"
/>
<path stroke="#a3a2a3" stroke-opacity="0.992" vector-effect="non-scaling-stroke" d="
  M 293.04 120.00
  Q 292.98 120.23 292.75 120.29"
/>
<path stroke="#a29f9b" stroke-opacity="0.992" vector-effect="non-scaling-stroke" d="
  M 315.04 115.50
  Q 315.02 116.06 314.54 116.25"
/>
<path stroke="#676665" stroke-opacity="0.996" vector-effect="non-scaling-stroke" d="
  M 183.25 111.54
  Q 179.51 112.65 175.75 111.54"
/>
<path stroke="#676665" stroke-opacity="0.996" vector-effect="non-scaling-stroke" d="
  M 187.00 114.29
  Q 184.76 114.45 184.50 116.50
  Q 183.80 122.06 184.46 129.50"
/>
<path stroke="#7b7b7c" stroke-opacity="0.996" vector-effect="non-scaling-stroke" d="
  M 184.46 129.50
  Q 185.27 129.90 187.69 129.94
  Q 199.20 130.09 204.50 130.00
  Q 205.29 129.99 205.54 129.25"
/>
<path stroke="#464944" stroke-opacity="0.996" vector-effect="non-scaling-stroke" d="
  M 205.54 129.25
  Q 205.88 124.86 205.69 118.56
  Q 205.54 113.79 200.75 113.79"
/>
<path stroke="#676665" stroke-opacity="0.996" vector-effect="non-scaling-stroke" d="
  M 209.96 116.75
  Q 209.25 116.74 209.25 118.00
  Q 209.25 132.00 209.38 146.00
  Q 209.42 150.00 213.19 149.81
  Q 214.76 149.73 215.04 151.00"
/>
<path stroke="#464944" stroke-opacity="0.996" vector-effect="non-scaling-stroke" d="
  M 213.29 151.50
  Q 207.37 150.72 201.50 151.71"
/>
<path stroke="#737376" stroke-opacity="0.996" vector-effect="non-scaling-stroke" d="
  M 199.75 151.04
  L 200.03 150.45
  A 0.83 0.76 10.7 0 1 200.75 150.00
  Q 204.61 149.90 205.36 146.90
  Q 205.45 146.53 205.61 142.07
  Q 205.79 137.46 205.58 133.12
  A 1.17 1.17 88.7 0 0 204.41 132.00
  Q 194.88 132.00 186.00 132.00
  Q 184.58 132.00 184.29 133.25"
/>
<path stroke="#676665" stroke-opacity="0.996" vector-effect="non-scaling-stroke" d="
  M 184.29 133.25
  Q 184.08 139.44 184.40 145.61
  Q 184.52 147.74 185.35 148.66
  Q 186.54 149.95 188.69 149.86
  Q 189.99 149.80 190.04 151.00"
/>
<path stroke="#464944" stroke-opacity="0.996" vector-effect="non-scaling-stroke" d="
  M 189.00 151.46
  Q 182.73 150.91 176.46 151.50"
/>
<path stroke="#555654" stroke-opacity="0.996" vector-effect="non-scaling-stroke" d="
  M 174.75 151.04
  Q 174.95 150.83 175.03 150.57
  A 0.71 0.53 -81.0 0 1 175.56 150.06
  Q 177.40 149.99 178.96 149.00"
/>
<path stroke="#555654" stroke-opacity="0.996" vector-effect="non-scaling-stroke" d="
  M 179.79 147.50
  Q 180.47 147.38 180.50 146.75
  Q 181.14 132.72 180.50 116.75
  Q 180.39 114.06 177.50 114.04"
/>
<path stroke="#c1c4c0" stroke-opacity="0.992" vector-effect="non-scaling-stroke" d="
  M 205.54 129.25
  Q 205.39 128.90 205.04 128.75"
/>
<path stroke="#464944" stroke-opacity="0.996" vector-effect="non-scaling-stroke" d="
  M 207.25 111.54
  Q 204.00 112.06 200.75 111.54"
/>
<path stroke="#1d201e" stroke-opacity="0.996" vector-effect="non-scaling-stroke" d="
  M 246.21 128.75
  Q 245.92 129.14 246.25 130.00
  Q 248.03 134.67 250.04 139.25"
/>
<path stroke="#737376" stroke-opacity="0.996" vector-effect="non-scaling-stroke" d="
  M 250.04 139.25
  Q 250.80 141.40 251.75 143.47
  Q 253.37 146.98 253.78 147.52
  Q 255.32 149.53 258.25 149.54"
/>
<path stroke="#464944" stroke-opacity="0.996" vector-effect="non-scaling-stroke" d="
  M 256.00 151.71
  Q 256.09 151.14 255.50 151.15
  Q 251.50 151.25 247.50 151.25
  Q 246.57 151.25 246.50 151.71"
/>
<path stroke="#676665" stroke-opacity="0.996" vector-effect="non-scaling-stroke" d="
  M 244.75 149.79
  Q 250.22 150.33 248.46 145.25"
/>
<path stroke="#1d201e" stroke-opacity="0.996" vector-effect="non-scaling-stroke" d="
  M 248.46 145.25
  L 245.42 137.99
  A 0.89 0.70 -6.6 0 0 244.68 137.53
  Q 238.65 137.11 232.61 137.24
  Q 232.45 137.24 231.41 137.14
  Q 230.10 137.01 229.79 138.25"
/>
<path stroke="#676665" stroke-opacity="0.996" vector-effect="non-scaling-stroke" d="
  M 226.96 145.00
  Q 224.06 150.29 230.04 149.75"
/>
<path stroke="#464944" stroke-opacity="0.996" vector-effect="non-scaling-stroke" d="
  M 228.50 151.54
  L 218.50 151.29"
/>
<path stroke="#464944" stroke-opacity="0.996" vector-effect="non-scaling-stroke" d="
  M 217.29 150.75
  Q 217.74 150.64 218.13 150.34
  Q 218.60 149.98 218.99 149.86
  Q 224.06 148.28 224.46 142.75"
/>
<path stroke="#2f2e2d" stroke-opacity="0.996" vector-effect="non-scaling-stroke" d="
  M 231.00 134.71
  Q 229.67 135.00 230.76 135.55
  Q 231.03 135.69 231.39 135.70
  Q 237.70 135.84 244.01 135.70
  A 0.52 0.40 -2.9 0 0 244.52 135.27
  Q 244.48 134.94 244.00 134.96"
/>
<path stroke="#7b7d6e" stroke-opacity="0.984" vector-effect="non-scaling-stroke" d="
  M 301.25 171.46
  Q 336.50 171.53 371.75 171.63
  Q 376.77 171.64 371.50 171.63
  Q 345.34 171.56 319.19 172.00"
/>
<path stroke="#7b7d6e" stroke-opacity="0.984" vector-effect="non-scaling-stroke" d="
  M 231.19 172.00
  Q 224.56 171.37 217.94 172.00"
/>
<path stroke="#7b7d6e" stroke-opacity="0.984" vector-effect="non-scaling-stroke" d="
  M 153.94 172.00
  L 78.25 171.75"
/>
</g>
<path fill="#000000" d="
  M 0.00 0.00
  L 299.81 0.00
  L 299.99 80.12
  A 0.83 0.82 89.6 0 0 300.81 80.94
  L 378.00 81.06
  L 378.00 171.31
  L 301.25 171.46
  Q 288.13 171.10 275.00 171.28
  Q 260.31 171.49 254.99 171.47
  Q 167.25 171.24 79.50 171.25
  Q 78.34 171.25 78.25 171.75
  L 77.94 101.56
  A 0.51 0.50 89.4 0 0 77.44 101.06
  Q 18.44 100.89 2.00 101.00
  Q 0.56 101.01 0.00 100.69
  L 0.00 0.00
  Z
  M 78.04 81.00
  Q 103.65 81.10 129.25 80.76
  Q 129.47 80.75 129.50 80.54
  L 292.19 81.00
  A 0.81 0.81 -45.0 0 0 293.00 80.19
  L 293.00 7.81
  A 0.81 0.81 1.1 0 0 292.19 7.00
  L 7.82 7.00
  A 0.82 0.82 45.0 0 0 7.00 7.82
  L 7.00 93.34
  A 0.66 0.66 -2.3 0 0 7.66 94.00
  L 77.18 94.00
  A 0.84 0.83 -89.7 0 0 78.01 93.17
  L 78.04 81.00
  Z
  M 86.05 87.39
  Q 88.54 87.75 91.01 87.34
  Q 91.63 87.24 91.00 87.24
  L 86.06 87.30
  Q 85.43 87.30 86.05 87.39
  Z
  M 85.25 163.96
  Q 84.80 164.33 85.04 164.60
  Q 85.18 164.75 85.51 164.75
  Q 191.10 165.10 296.69 164.72
  Q 326.72 164.61 369.94 164.94
  Q 370.92 164.94 370.75 164.04
  Q 371.58 163.94 371.06 163.44
  Q 370.95 126.09 371.00 88.56
  A 0.56 0.56 0.0 0 0 370.44 88.00
  L 85.96 88.00
  A 0.96 0.95 0.0 0 0 85.00 88.95
  L 85.25 163.96
  Z"
/>
<path fill="#f7f7f9" fill-opacity="0.988" d="
  M 47.25 36.29
  Q 47.23 36.78 46.56 36.81
  Q 41.02 37.08 38.75 37.00
  Q 37.22 36.95 37.00 36.29
  Q 42.12 35.64 47.25 36.29
  Z"
/>
<path fill="#f7f7f9" fill-opacity="0.988" d="
  M 99.79 36.75
  Q 99.52 37.52 98.75 37.00
  Q 85.50 37.18 72.26 36.76
  A 0.32 0.19 5.3 0 1 71.92 36.52
  Q 71.96 36.39 72.25 36.29
  Q 85.53 35.65 98.82 36.14
  Q 99.50 36.16 99.79 36.75
  Z"
/>
<path fill="#f7f7f9" fill-opacity="0.988" d="
  M 158.00 36.96
  L 157.50 37.04
  Q 152.96 37.30 148.50 36.54
  Q 149.64 36.18 154.25 36.00
  Q 156.93 35.89 158.00 36.96
  Z"
/>
<path fill="#e8e8ed" fill-opacity="0.988" d="
  M 243.25 36.29
  Q 243.63 36.62 243.24 36.68
  Q 239.10 37.32 234.94 36.81
  Q 234.20 36.72 234.25 36.29
  Q 238.74 35.66 243.25 36.29
  Z"
/>
<path fill="#000000" d="
  M 37.00 36.29
  Q 37.22 36.95 38.75 37.00
  Q 41.02 37.08 46.56 36.81
  Q 47.23 36.78 47.25 36.29
  Q 51.15 36.88 48.80 38.51
  Q 48.34 38.83 47.07 39.13
  Q 45.88 39.40 44.96 40.25
  Q 44.63 40.42 44.42 40.70
  Q 44.25 40.93 44.24 41.34
  Q 43.65 56.79 44.24 71.91
  Q 44.32 74.15 46.54 74.44
  Q 51.41 75.06 56.25 74.46
  Q 63.34 72.99 63.96 65.75
  A 0.92 0.66 87.5 0 1 64.44 65.01
  Q 64.81 64.89 65.25 64.96
  Q 65.62 65.26 65.71 65.75
  Q 64.27 68.06 65.46 70.50
  L 64.71 75.75
  Q 63.08 76.37 61.41 76.24
  Q 58.65 76.03 58.56 76.03
  Q 47.78 76.26 37.00 76.46
  L 34.75 76.04
  Q 35.19 75.09 36.10 74.98
  Q 37.30 74.83 37.38 74.81
  Q 40.43 73.70 40.50 70.25
  Q 40.71 59.22 40.29 44.25
  L 39.84 41.04
  A 1.03 0.74 11.1 0 0 39.22 40.38
  Q 36.43 39.30 35.69 38.81
  Q 32.38 36.65 37.00 36.29
  Z"
/>
<path fill="#000000" d="
  M 72.25 36.29
  Q 71.96 36.39 71.92 36.52
  A 0.32 0.19 5.3 0 0 72.26 36.76
  Q 85.50 37.18 98.75 37.00
  Q 99.52 37.52 99.79 36.75
  L 100.71 43.50
  Q 99.63 45.43 100.29 47.75
  Q 100.16 48.76 99.33 48.69
  A 0.58 0.57 86.4 0 1 98.83 48.24
  Q 97.65 42.93 96.50 41.79
  Q 95.31 38.99 92.00 39.21
  Q 85.34 37.58 79.81 39.06
  Q 77.71 39.63 78.21 42.00
  L 78.06 53.89
  A 0.98 0.92 4.2 0 0 78.92 54.82
  Q 82.45 55.29 84.50 54.54
  Q 88.27 55.53 88.75 51.71
  Q 90.35 46.97 91.50 51.46
  Q 90.36 56.13 91.50 60.79
  Q 91.32 64.03 89.50 61.79
  Q 89.32 58.33 86.16 57.36
  Q 86.10 57.35 85.39 57.02
  Q 84.79 56.74 84.50 57.46
  Q 82.31 56.78 79.06 57.09
  A 1.16 1.12 -3.1 0 0 78.01 58.22
  L 78.21 70.75
  Q 77.63 72.37 78.58 73.44
  Q 79.23 74.17 80.78 74.39
  Q 86.32 75.21 93.06 74.06
  Q 98.03 73.21 98.50 68.71
  Q 98.93 67.34 99.31 65.96
  Q 99.55 65.10 99.94 64.66
  Q 100.89 63.62 101.51 64.97
  A 1.72 0.80 -68.7 0 1 101.57 65.92
  L 100.96 69.75
  L 100.24 75.31
  A 1.00 0.91 -86.3 0 1 99.34 76.18
  L 71.96 76.50
  Q 70.03 76.59 68.29 75.75
  Q 69.08 75.12 71.19 74.69
  Q 74.53 74.00 73.50 70.46
  Q 74.70 56.23 73.54 42.00
  Q 74.30 41.75 73.97 41.17
  Q 73.76 40.79 73.71 40.67
  Q 72.93 38.83 70.75 39.04
  Q 69.37 39.08 68.58 38.41
  Q 67.23 37.27 68.93 36.94
  L 72.25 36.29
  Z"
/>
<path fill="#000000" d="
  M 186.00 39.29
  Q 183.13 40.01 184.25 43.04
  Q 183.84 52.02 184.05 61.00
  Q 184.22 68.41 183.25 75.76
  Q 183.00 77.60 181.67 76.31
  Q 176.86 71.63 172.96 65.50
  Q 173.10 65.04 172.94 64.81
  Q 166.07 55.40 159.46 45.80
  Q 159.20 45.42 158.75 45.54
  Q 158.33 44.66 157.50 44.21
  Q 157.45 42.98 156.68 42.16
  Q 156.31 41.76 156.29 42.32
  Q 155.79 55.33 155.99 68.36
  Q 155.99 68.48 155.92 70.14
  Q 155.76 74.58 160.25 74.97
  A 1.16 0.66 65.4 0 1 160.95 75.47
  Q 161.21 75.83 161.71 75.75
  L 160.25 76.46
  Q 154.71 75.54 149.25 76.71
  Q 148.42 76.54 147.75 76.04
  Q 147.90 74.86 149.06 74.88
  Q 151.76 74.90 152.87 73.04
  Q 153.48 72.00 153.57 69.33
  Q 153.80 61.82 153.75 49.75
  Q 153.73 44.79 153.00 41.21
  Q 152.99 39.50 151.46 39.75
  Q 150.48 38.98 149.24 38.80
  Q 148.26 38.66 147.85 38.41
  Q 146.26 37.40 148.50 36.54
  Q 152.96 37.30 157.50 37.04
  L 179.00 67.29
  Q 181.09 71.03 180.71 67.75
  Q 181.15 59.01 181.00 50.25
  Q 180.90 44.39 180.29 42.00
  Q 181.64 39.23 178.75 39.21
  Q 177.57 39.05 176.46 38.68
  Q 175.71 38.42 175.37 37.92
  Q 174.62 36.79 176.50 36.50
  Q 181.41 35.75 188.26 37.15
  A 1.45 0.98 -4.7 0 1 189.09 37.62
  Q 189.59 38.31 188.81 38.76
  Q 188.47 38.96 187.64 38.94
  Q 186.79 38.93 186.00 39.29
  Z"
/>
<path fill="#000000" d="
  M 222.79 43.50
  Q 221.66 38.85 216.75 39.46
  Q 214.57 39.06 208.75 39.00
  Q 206.11 38.97 204.75 39.96
  Q 203.70 38.90 203.31 40.56
  Q 202.43 44.36 203.16 53.95
  Q 203.19 54.36 203.36 54.64
  Q 203.94 55.63 204.29 54.25
  Q 209.21 56.43 212.95 53.15
  Q 213.62 52.57 214.03 51.46
  Q 215.99 46.22 216.71 53.00
  Q 215.65 56.23 216.71 59.50
  Q 216.57 60.54 216.32 61.57
  Q 215.76 63.84 214.50 61.79
  Q 214.70 57.72 210.75 57.71
  Q 207.70 56.43 204.46 57.25
  Q 203.07 56.68 203.00 58.00
  Q 202.72 63.14 203.25 72.25
  Q 203.27 72.59 203.96 73.50
  Q 204.93 74.41 207.25 74.50
  Q 214.43 74.79 216.56 74.56
  Q 217.94 74.42 218.21 74.00
  Q 218.25 73.74 218.50 73.79
  Q 223.46 73.36 223.96 68.25
  Q 223.78 66.20 224.93 64.64
  A 0.66 0.59 -57.9 0 1 225.71 64.42
  Q 226.57 64.86 226.71 66.00
  Q 225.22 68.30 226.46 70.75
  L 225.71 76.00
  Q 205.16 76.09 197.25 76.25
  Q 196.86 76.26 197.00 76.71
  L 193.25 75.79
  L 197.25 74.38
  A 2.94 2.33 -5.8 0 0 199.01 72.67
  Q 199.78 70.02 199.54 67.00
  Q 199.30 64.00 199.25 67.75
  Q 199.21 70.36 198.79 71.25
  Q 199.31 57.38 198.79 43.50
  Q 200.26 40.44 197.25 39.29
  Q 196.29 38.99 195.29 38.94
  Q 194.34 38.89 193.88 38.66
  Q 192.60 37.99 193.72 37.11
  Q 194.16 36.75 194.90 36.72
  Q 209.74 36.03 224.57 36.91
  A 0.61 0.61 -2.3 0 1 225.14 37.43
  Q 225.88 42.35 225.53 47.30
  Q 225.49 47.89 225.24 48.12
  Q 224.98 48.35 224.64 48.27
  A 1.02 0.81 84.9 0 1 224.00 47.59
  L 222.79 43.50
  Z"
/>
<path fill="#000000" d="
  M 234.25 36.29
  Q 234.20 36.72 234.94 36.81
  Q 239.10 37.32 243.24 36.68
  Q 243.63 36.62 243.25 36.29
  Q 249.27 36.72 255.24 37.55
  Q 259.09 38.09 260.97 39.35
  Q 263.84 41.29 264.59 44.59
  Q 265.54 48.83 263.03 52.55
  Q 260.46 56.39 255.24 57.25
  Q 254.73 57.34 255.09 57.71
  Q 259.27 62.08 262.04 67.50
  Q 263.48 73.29 268.92 75.34
  A 0.43 0.16 86.0 0 1 269.08 75.69
  Q 269.09 75.84 269.29 76.00
  Q 268.89 76.50 268.25 76.46
  L 261.04 76.00
  L 258.75 71.04
  Q 257.15 65.92 253.94 61.59
  Q 252.04 59.03 248.98 58.06
  Q 248.17 57.81 248.25 58.46
  L 244.16 57.79
  Q 244.09 57.78 243.41 57.52
  Q 243.04 57.38 242.96 58.00
  Q 242.26 58.10 242.25 59.25
  Q 242.17 69.14 242.31 71.19
  Q 242.55 74.54 246.25 74.75
  Q 247.28 74.81 248.75 75.79
  Q 247.60 76.49 246.25 76.46
  Q 240.01 75.67 233.75 76.29
  Q 233.18 76.38 232.75 76.04
  Q 233.34 74.66 235.00 74.79
  Q 236.06 74.87 236.54 74.00
  Q 237.87 73.87 237.79 72.50
  Q 238.48 72.53 238.50 72.00
  Q 238.96 60.26 238.75 44.00
  Q 238.73 42.84 238.25 42.71
  Q 238.91 39.66 236.25 39.25
  Q 234.12 38.92 233.57 38.62
  Q 230.78 37.05 234.25 36.29
  Z
  M 243.21 40.50
  Q 242.33 41.18 242.31 42.06
  Q 242.19 48.53 242.25 55.02
  A 0.57 0.56 5.6 0 0 242.71 55.57
  Q 247.65 56.52 252.50 55.04
  Q 254.09 54.32 255.69 53.61
  Q 260.40 51.49 260.17 46.24
  Q 260.03 43.05 257.35 41.38
  Q 252.85 38.56 247.56 38.93
  Q 247.44 38.93 245.96 38.92
  Q 244.19 38.90 243.21 40.50
  Z"
/>
<path fill="#000000" d="
  M 131.25 49.96
  Q 130.86 50.13 131.00 50.47
  Q 135.17 60.44 139.31 70.44
  Q 140.82 74.08 145.71 75.75
  Q 144.66 76.61 143.25 76.71
  Q 143.34 76.14 142.75 76.15
  Q 137.75 76.25 132.75 76.15
  Q 132.16 76.14 132.25 76.71
  L 130.75 76.04
  Q 131.82 74.50 133.75 74.75
  A 1.69 1.23 8.5 0 0 135.56 73.81
  Q 136.24 70.20 133.79 67.50
  L 132.29 63.75
  Q 132.74 62.38 131.44 62.31
  Q 128.82 62.18 117.50 62.25
  A 1.34 0.84 12.9 0 0 116.61 62.56
  Q 116.26 62.94 116.25 63.50
  Q 113.39 67.70 112.75 72.75
  Q 112.52 74.59 115.69 74.81
  Q 116.90 74.90 117.25 75.96
  Q 116.71 76.42 116.00 76.46
  L 106.50 76.30
  A 0.25 0.21 0.0 0 0 106.25 76.51
  L 106.25 76.71
  Q 105.12 76.54 104.29 75.75
  Q 104.96 75.15 106.25 74.75
  Q 109.14 73.85 110.42 70.86
  Q 113.39 63.88 115.96 56.75
  Q 118.97 50.44 120.96 43.75
  Q 122.22 40.00 124.19 37.32
  A 0.80 0.80 48.8 0 1 125.53 37.41
  Q 128.98 43.75 131.25 49.96
  Z
  M 123.21 45.25
  Q 119.85 52.02 117.50 59.21
  Q 116.98 59.60 117.04 60.05
  A 0.80 0.55 0.1 0 0 117.75 60.54
  Q 123.74 61.05 130.30 60.51
  A 0.53 0.52 86.1 0 0 130.78 59.95
  Q 130.59 57.09 129.00 55.29
  L 124.75 45.21
  Q 124.81 41.21 123.21 45.25
  Z"
/>
<path fill="#3a413d" fill-opacity="0.988" d="
  M 157.50 37.04
  L 158.00 36.96
  L 179.50 67.21
  L 179.00 67.29
  L 157.50 37.04
  Z"
/>
<path fill="#5f5d5a" fill-opacity="0.992" d="
  M 92.00 39.21
  Q 91.59 39.19 91.50 39.46
  Q 88.80 39.01 83.00 39.00
  Q 79.35 38.99 78.21 42.00
  Q 77.71 39.63 79.81 39.06
  Q 85.34 37.58 92.00 39.21
  Z"
/>
<path fill="#acaea9" fill-opacity="0.988" d="
  M 70.75 39.04
  Q 72.93 38.83 73.71 40.67
  Q 73.76 40.79 73.97 41.17
  Q 74.30 41.75 73.54 42.00
  Q 72.65 40.06 70.75 39.04
  Z"
/>
<path fill="#8c9288" fill-opacity="0.992" d="
  M 180.29 42.00
  Q 179.99 40.33 178.75 39.21
  Q 181.64 39.23 180.29 42.00
  Z"
/>
<path fill="#cfcdcb" fill-opacity="0.988" d="
  M 92.00 39.21
  Q 95.31 38.99 96.50 41.79
  Q 94.29 40.08 91.50 39.46
  Q 91.59 39.19 92.00 39.21
  Z"
/>
<path fill="#acaea9" fill-opacity="0.988" d="
  M 186.00 39.29
  L 184.25 43.04
  Q 183.13 40.01 186.00 39.29
  Z"
/>
<path fill="#75726b" fill-opacity="0.992" d="
  M 197.25 39.29
  Q 200.26 40.44 198.79 43.50
  Q 198.71 41.15 197.25 39.29
  Z"
/>
<path fill="#5f5d5a" fill-opacity="0.992" d="
  M 222.79 43.50
  Q 220.71 40.15 216.75 39.46
  Q 221.66 38.85 222.79 43.50
  Z"
/>
<path fill="#cfcdcb" fill-opacity="0.988" d="
  M 153.00 41.21
  L 152.29 41.25
  Q 152.08 40.39 151.46 39.75
  Q 152.99 39.50 153.00 41.21
  Z"
/>
<path fill="#e8e8ed" fill-opacity="0.988" d="
  M 204.75 39.96
  Q 204.29 40.15 204.25 40.50
  Q 203.57 46.98 204.29 54.25
  Q 203.94 55.63 203.36 54.64
  Q 203.19 54.36 203.16 53.95
  Q 202.43 44.36 203.31 40.56
  Q 203.70 38.90 204.75 39.96
  Z"
/>
<path fill="#e8e8ed" fill-opacity="0.988" d="
  M 44.96 40.25
  L 45.25 72.69
  A 1.09 1.06 -89.5 0 0 46.28 73.77
  L 56.50 74.04
  L 56.25 74.46
  Q 51.41 75.06 46.54 74.44
  Q 44.32 74.15 44.24 71.91
  Q 43.65 56.79 44.24 41.34
  Q 44.25 40.93 44.42 40.70
  Q 44.63 40.42 44.96 40.25
  Z"
/>
<path fill="#acaea9" fill-opacity="0.988" d="
  M 243.21 40.50
  L 243.15 54.31
  A 0.56 0.53 0.6 0 0 243.70 54.84
  L 252.50 55.04
  Q 247.65 56.52 242.71 55.57
  A 0.57 0.56 5.6 0 1 242.25 55.02
  Q 242.19 48.53 242.31 42.06
  Q 242.33 41.18 243.21 40.50
  Z"
/>
<path fill="#5f5d5a" fill-opacity="0.992" d="
  M 152.29 41.25
  L 153.00 41.21
  Q 153.73 44.79 153.75 49.75
  Q 153.80 61.82 153.57 69.33
  Q 153.48 72.00 152.87 73.04
  Q 151.76 74.90 149.06 74.88
  Q 147.90 74.86 147.75 76.04
  Q 146.26 75.34 147.65 74.56
  Q 148.96 73.82 150.50 74.00
  Q 152.91 74.28 152.94 70.69
  Q 153.05 58.59 153.00 46.50
  Q 152.99 43.39 152.29 41.25
  Z"
/>
<path fill="#f7f7f9" fill-opacity="0.988" d="
  M 157.50 44.21
  Q 157.01 44.69 157.00 46.25
  Q 156.93 58.88 157.52 72.00
  A 2.04 2.04 5.5 0 0 159.08 73.89
  Q 161.60 74.50 161.71 75.75
  Q 161.21 75.83 160.95 75.47
  A 1.16 0.66 65.4 0 0 160.25 74.97
  Q 155.76 74.58 155.92 70.14
  Q 155.99 68.48 155.99 68.36
  Q 155.79 55.33 156.29 42.32
  Q 156.31 41.76 156.68 42.16
  Q 157.45 42.98 157.50 44.21
  Z"
/>
<path fill="#8c9288" fill-opacity="0.992" d="
  M 238.25 42.71
  Q 238.73 42.84 238.75 44.00
  Q 238.96 60.26 238.50 72.00
  Q 238.48 72.53 237.79 72.50
  L 238.25 42.71
  Z"
/>
<path fill="#e8e8ed" fill-opacity="0.988" d="
  M 124.75 45.21
  Q 124.04 45.14 123.50 45.54
  Q 123.27 45.48 123.21 45.25
  Q 124.81 41.21 124.75 45.21
  Z"
/>
<path fill="#acaea9" fill-opacity="0.988" d="
  M 100.71 43.50
  Q 101.48 45.77 100.29 47.75
  Q 99.63 45.43 100.71 43.50
  Z"
/>
<path fill="#5f5d5a" fill-opacity="0.992" d="
  M 120.96 43.75
  Q 118.97 50.44 115.96 56.75
  L 115.50 56.71
  L 120.96 43.75
  Z"
/>
<path fill="#3a413d" fill-opacity="0.988" d="
  M 40.29 44.25
  Q 40.71 59.22 40.50 70.25
  Q 40.43 73.70 37.38 74.81
  Q 37.30 74.83 36.10 74.98
  Q 35.19 75.09 34.75 76.04
  Q 33.82 75.86 34.58 75.08
  Q 35.77 73.85 37.61 74.01
  Q 39.71 74.19 39.75 72.11
  L 40.29 44.25
  Z"
/>
<path fill="#5f5d5a" fill-opacity="0.992" d="
  M 123.21 45.25
  Q 123.27 45.48 123.50 45.54
  L 117.75 59.21
  L 117.50 59.21
  Q 119.85 52.02 123.21 45.25
  Z"
/>
<path fill="#3a413d" fill-opacity="0.988" d="
  M 158.75 45.54
  Q 159.20 45.42 159.46 45.80
  Q 166.07 55.40 172.94 64.81
  Q 173.10 65.04 172.96 65.50
  L 158.75 45.54
  Z"
/>
<path fill="#acaea9" fill-opacity="0.988" d="
  M 131.25 49.96
  Q 134.79 58.06 138.35 66.15
  Q 138.39 66.22 139.18 68.27
  Q 140.55 71.80 143.72 73.83
  Q 143.76 73.86 144.99 74.34
  Q 145.88 74.68 145.71 75.75
  Q 140.82 74.08 139.31 70.44
  Q 135.17 60.44 131.00 50.47
  Q 130.86 50.13 131.25 49.96
  Z"
/>
<path fill="#cfcdcb" fill-opacity="0.988" d="
  M 91.50 51.46
  Q 92.66 56.13 91.50 60.79
  Q 90.36 56.13 91.50 51.46
  Z"
/>
<path fill="#e8e8ed" fill-opacity="0.988" d="
  M 88.75 51.71
  Q 88.27 55.53 84.50 54.54
  Q 86.98 53.65 88.75 51.71
  Z"
/>
<path fill="#3a413d" fill-opacity="0.988" d="
  M 216.71 53.00
  Q 217.40 56.24 216.71 59.50
  Q 215.65 56.23 216.71 53.00
  Z"
/>
<path fill="#8c9288" fill-opacity="0.992" d="
  M 129.00 55.29
  Q 130.59 57.09 130.78 59.95
  A 0.53 0.52 86.1 0 1 130.30 60.51
  Q 123.74 61.05 117.75 60.54
  A 0.80 0.55 0.1 0 1 117.04 60.05
  Q 116.98 59.60 117.50 59.21
  L 117.75 59.21
  Q 118.16 60.00 119.75 60.00
  Q 123.75 60.00 128.57 60.00
  A 1.46 1.45 80.6 0 0 129.94 58.07
  L 129.00 55.29
  Z"
/>
<path fill="#acaea9" fill-opacity="0.988" d="
  M 115.50 56.71
  L 115.96 56.75
  Q 113.39 63.88 110.42 70.86
  Q 109.14 73.85 106.25 74.75
  Q 104.96 75.15 104.29 75.75
  Q 105.43 74.05 107.35 73.24
  A 1.56 1.28 -0.8 0 0 108.06 72.64
  Q 112.48 65.01 115.50 56.71
  Z"
/>
<path fill="#e8e8ed" fill-opacity="0.988" d="
  M 89.50 61.79
  Q 87.99 58.51 84.50 57.46
  Q 84.79 56.74 85.39 57.02
  Q 86.10 57.35 86.16 57.36
  Q 89.32 58.33 89.50 61.79
  Z"
/>
<path fill="#e8e8ed" fill-opacity="0.988" d="
  M 204.46 57.25
  Q 203.63 65.21 204.25 73.21
  Q 204.02 73.27 203.96 73.50
  Q 203.27 72.59 203.25 72.25
  Q 202.72 63.14 203.00 58.00
  Q 203.07 56.68 204.46 57.25
  Z"
/>
<path fill="#3a413d" fill-opacity="0.988" d="
  M 214.50 61.79
  Q 213.63 58.78 210.75 57.71
  Q 214.70 57.72 214.50 61.79
  Z"
/>
<path fill="#acaea9" fill-opacity="0.988" d="
  M 242.96 58.00
  L 243.25 71.50
  Q 243.30 73.78 246.81 74.19
  Q 248.44 74.38 248.75 75.79
  Q 247.28 74.81 246.25 74.75
  Q 242.55 74.54 242.31 71.19
  Q 242.17 69.14 242.25 59.25
  Q 242.26 58.10 242.96 58.00
  Z"
/>
<path fill="#5f5d5a" fill-opacity="0.992" d="
  M 258.75 71.04
  Q 255.64 64.78 253.19 61.56
  Q 251.60 59.48 248.25 58.46
  Q 248.17 57.81 248.98 58.06
  Q 252.04 59.03 253.94 61.59
  Q 257.15 65.92 258.75 71.04
  Z"
/>
<path fill="#5f5d5a" fill-opacity="0.992" d="
  M 132.29 63.75
  L 132.02 63.38
  A 1.13 0.77 -11.8 0 0 131.22 63.05
  Q 125.49 62.96 119.75 63.00
  Q 117.24 63.02 116.25 63.50
  Q 116.26 62.94 116.61 62.56
  A 1.34 0.84 12.9 0 1 117.50 62.25
  Q 128.82 62.18 131.44 62.31
  Q 132.74 62.38 132.29 63.75
  Z"
/>
<path fill="#8c9288" fill-opacity="0.992" d="
  M 116.25 63.50
  L 113.31 71.56
  Q 112.35 74.21 114.75 74.00
  Q 116.47 73.85 117.63 75.11
  Q 118.19 75.71 117.25 75.96
  Q 116.90 74.90 115.69 74.81
  Q 112.52 74.59 112.75 72.75
  Q 113.39 67.70 116.25 63.50
  Z"
/>
<path fill="#acaea9" fill-opacity="0.988" d="
  M 65.25 64.96
  Q 64.81 64.89 64.44 65.01
  A 0.92 0.66 87.5 0 0 63.96 65.75
  Q 63.34 72.99 56.25 74.46
  L 56.50 74.04
  Q 61.43 72.69 64.01 64.57
  A 0.53 0.51 2.5 0 1 64.41 64.22
  Q 65.05 64.10 65.25 64.96
  Z"
/>
<path fill="#75726b" fill-opacity="0.992" d="
  M 193.25 75.79
  Q 193.28 74.17 194.94 74.19
  Q 198.33 74.22 198.79 71.25
  Q 199.21 70.36 199.25 67.75
  Q 199.30 64.00 199.54 67.00
  Q 199.78 70.02 199.01 72.67
  A 2.94 2.33 -5.8 0 1 197.25 74.38
  L 193.25 75.79
  Z"
/>
<path fill="#cfcdcb" fill-opacity="0.988" d="
  M 65.71 65.75
  L 65.46 70.50
  Q 64.27 68.06 65.71 65.75
  Z"
/>
<path fill="#8c9288" fill-opacity="0.992" d="
  M 226.71 66.00
  Q 227.25 68.40 226.46 70.75
  Q 225.22 68.30 226.71 66.00
  Z"
/>
<path fill="#cfcdcb" fill-opacity="0.988" d="
  M 179.00 67.29
  L 179.50 67.21
  Q 179.97 67.78 180.71 67.75
  Q 181.09 71.03 179.00 67.29
  Z"
/>
<path fill="#acaea9" fill-opacity="0.988" d="
  M 133.79 67.50
  Q 136.24 70.20 135.56 73.81
  A 1.69 1.23 8.5 0 1 133.75 74.75
  Q 131.82 74.50 130.75 76.04
  Q 129.62 75.55 131.71 74.34
  A 2.09 2.04 36.9 0 1 133.27 74.14
  Q 134.72 74.53 135.00 72.75
  Q 135.23 71.33 133.79 67.50
  Z"
/>
<path fill="#8c9288" fill-opacity="0.992" d="
  M 262.04 67.50
  Q 263.73 70.49 266.07 72.94
  Q 266.68 73.58 267.82 74.01
  Q 268.99 74.44 269.69 75.06
  Q 270.56 75.84 269.29 76.00
  Q 269.09 75.84 269.08 75.69
  A 0.43 0.16 86.0 0 0 268.92 75.34
  Q 263.48 73.29 262.04 67.50
  Z"
/>
<path fill="#acaea9" fill-opacity="0.988" d="
  M 223.96 68.25
  Q 223.46 73.36 218.50 73.79
  Q 222.30 72.12 223.96 68.25
  Z"
/>
<path fill="#cfcdcb" fill-opacity="0.988" d="
  M 98.50 68.71
  Q 98.03 73.21 93.06 74.06
  Q 86.32 75.21 80.78 74.39
  Q 79.23 74.17 78.58 73.44
  Q 77.63 72.37 78.21 70.75
  Q 78.79 73.46 80.56 73.69
  Q 84.36 74.19 91.00 73.75
  Q 96.61 73.38 98.50 68.71
  Z"
/>
<path fill="#acaea9" fill-opacity="0.988" d="
  M 100.96 69.75
  L 100.95 76.07
  A 0.97 0.93 -0.0 0 1 99.98 77.00
  Q 88.25 77.00 77.00 77.01
  Q 74.45 77.01 71.96 76.50
  L 99.34 76.18
  A 1.00 0.91 -86.3 0 0 100.24 75.31
  L 100.96 69.75
  Z"
/>
<path fill="#cfcdcb" fill-opacity="0.988" d="
  M 73.50 70.46
  Q 74.53 74.00 71.19 74.69
  Q 69.08 75.12 68.29 75.75
  Q 68.75 74.00 70.76 73.98
  A 1.43 1.05 17.5 0 0 71.64 73.68
  Q 73.02 72.42 73.50 70.46
  Z"
/>
<path fill="#acaea9" fill-opacity="0.988" d="
  M 204.25 73.21
  Q 204.66 73.68 205.25 73.72
  Q 211.72 74.14 218.21 74.00
  Q 217.94 74.42 216.56 74.56
  Q 214.43 74.79 207.25 74.50
  Q 204.93 74.41 203.96 73.50
  Q 204.02 73.27 204.25 73.21
  Z"
/>
<path fill="#acaea9" fill-opacity="0.988" d="
  M 236.54 74.00
  Q 236.06 74.87 235.00 74.79
  Q 233.34 74.66 232.75 76.04
  Q 231.57 75.70 232.69 74.94
  Q 234.62 73.62 236.54 74.00
  Z"
/>
<path fill="#acaea9" fill-opacity="0.988" d="
  M 64.71 75.75
  Q 65.00 76.69 64.25 76.75
  Q 51.86 77.67 37.00 76.46
  Q 47.78 76.26 58.56 76.03
  Q 58.65 76.03 61.41 76.24
  Q 63.08 76.37 64.71 75.75
  Z"
/>
<path fill="#8c9288" fill-opacity="0.992" d="
  M 160.25 76.46
  Q 154.78 77.50 149.25 76.71
  Q 154.71 75.54 160.25 76.46
  Z"
/>
<path fill="#8c9288" fill-opacity="0.992" d="
  M 225.71 76.00
  Q 225.67 76.87 224.69 76.89
  Q 210.84 77.24 197.00 76.71
  Q 196.86 76.26 197.25 76.25
  Q 205.16 76.09 225.71 76.00
  Z"
/>
<path fill="#8c9288" fill-opacity="0.992" d="
  M 246.25 76.46
  Q 239.97 77.78 233.75 76.29
  Q 240.01 75.67 246.25 76.46
  Z"
/>
<path fill="#75726b" fill-opacity="0.992" d="
  M 261.04 76.00
  L 268.25 76.46
  Q 266.16 77.19 263.93 77.06
  Q 263.88 77.06 262.57 77.12
  Q 261.44 77.18 261.04 76.00
  Z"
/>
<path fill="#8c9288" fill-opacity="0.992" d="
  M 116.00 76.46
  Q 111.16 77.54 106.25 76.71
  L 106.25 76.51
  A 0.25 0.21 -0.0 0 1 106.50 76.30
  L 116.00 76.46
  Z"
/>
<path fill="#8c9288" fill-opacity="0.992" d="
  M 143.25 76.71
  Q 137.75 77.38 132.25 76.71
  Q 132.16 76.14 132.75 76.15
  Q 137.75 76.25 142.75 76.15
  Q 143.34 76.14 143.25 76.71
  Z"
/>
<path fill="#e8e8ed" fill-opacity="0.988" d="
  M 129.50 80.54
  Q 129.47 80.75 129.25 80.76
  Q 103.65 81.10 78.04 81.00
  Q 77.99 79.77 79.22 79.90
  Q 80.20 80.00 80.31 80.00
  Q 104.91 80.02 129.50 80.54
  Z"
/>
<path fill="#000000" d="
  M 86.06 87.30
  L 91.00 87.24
  Q 91.63 87.24 91.01 87.34
  Q 88.54 87.75 86.05 87.39
  Q 85.43 87.30 86.06 87.30
  Z"
/>
<path fill="#000000" d="
  M 163.75 112.96
  Q 164.02 114.14 165.26 114.42
  A 0.86 0.68 -60.4 0 0 166.04 114.10
  Q 166.84 113.14 168.04 112.75
  Q 168.67 113.77 168.71 115.00
  Q 167.63 117.86 168.71 120.75
  Q 168.53 125.36 166.56 122.82
  Q 166.11 122.23 165.64 121.06
  Q 165.23 120.04 164.75 119.04
  Q 162.71 113.69 156.96 113.50
  Q 153.64 112.60 150.25 113.29
  Q 145.22 114.03 142.81 117.81
  Q 136.45 127.79 140.19 139.81
  Q 142.15 146.14 149.25 149.04
  Q 159.65 152.25 165.75 143.50
  Q 166.14 142.94 165.75 142.71
  L 167.76 138.97
  A 0.87 0.77 14.9 0 1 168.56 138.57
  Q 170.51 138.74 169.68 140.97
  Q 164.65 154.52 150.00 152.49
  Q 139.70 151.06 136.31 142.44
  Q 133.75 135.91 134.50 128.50
  Q 135.00 123.58 137.33 119.67
  Q 139.59 115.87 143.69 113.34
  Q 152.85 107.70 163.75 112.96
  Z"
/>
<path fill="#cfcdcb" fill-opacity="0.988" d="
  M 274.00 111.54
  L 274.00 111.74
  A 0.25 0.19 1.4 0 1 273.74 111.93
  Q 268.87 111.82 264.00 111.63
  Q 263.62 111.62 264.00 111.29
  Q 269.02 110.64 274.00 111.54
  Z"
/>
<path fill="#cfcdcb" fill-opacity="0.988" d="
  M 292.54 112.25
  Q 292.48 112.48 292.25 112.54
  Q 289.72 111.60 287.00 112.01
  Q 284.99 112.31 283.21 111.50
  Q 285.53 110.92 287.92 110.97
  Q 288.03 110.97 289.58 110.88
  Q 291.41 110.77 292.54 112.25
  Z"
/>
<path fill="#cfcdcb" fill-opacity="0.988" d="
  M 322.00 111.54
  Q 319.99 112.02 317.93 111.92
  Q 316.95 111.88 314.60 112.05
  Q 312.87 112.17 311.21 111.50
  Q 316.60 110.48 322.00 111.54
  Z"
/>
<path fill="#cfcdcb" fill-opacity="0.988" d="
  M 183.25 111.54
  Q 179.51 112.65 175.75 111.54
  Q 179.49 110.89 183.25 111.54
  Z"
/>
<path fill="#8c9288" fill-opacity="0.992" d="
  M 207.25 111.54
  Q 204.00 112.06 200.75 111.54
  Q 204.00 110.89 207.25 111.54
  Z"
/>
<path fill="#000000" d="
  M 246.21 128.75
  Q 245.92 129.14 246.25 130.00
  Q 248.03 134.67 250.04 139.25
  Q 250.80 141.40 251.75 143.47
  Q 253.37 146.98 253.78 147.52
  Q 255.32 149.53 258.25 149.54
  Q 258.57 149.71 258.75 149.98
  A 0.67 0.57 -37.9 0 1 258.58 150.79
  Q 257.53 151.72 256.00 151.71
  Q 256.09 151.14 255.50 151.15
  Q 251.50 151.25 247.50 151.25
  Q 246.57 151.25 246.50 151.71
  Q 243.92 151.74 244.75 149.79
  Q 250.22 150.33 248.46 145.25
  L 245.42 137.99
  A 0.89 0.70 -6.6 0 0 244.68 137.53
  Q 238.65 137.11 232.61 137.24
  Q 232.45 137.24 231.41 137.14
  Q 230.10 137.01 229.79 138.25
  L 226.96 145.00
  Q 224.06 150.29 230.04 149.75
  Q 231.58 151.48 228.50 151.54
  L 218.50 151.29
  Q 217.74 151.34 217.29 150.75
  Q 217.74 150.64 218.13 150.34
  Q 218.60 149.98 218.99 149.86
  Q 224.06 148.28 224.46 142.75
  L 236.80 112.51
  Q 237.94 109.71 239.13 112.45
  L 246.21 128.75
  Z
  M 231.00 134.71
  Q 229.67 135.00 230.76 135.55
  Q 231.03 135.69 231.39 135.70
  Q 237.70 135.84 244.01 135.70
  A 0.52 0.40 -2.9 0 0 244.52 135.27
  Q 244.48 134.94 244.00 134.96
  L 238.23 119.84
  Q 237.48 117.87 236.72 119.84
  L 231.00 134.71
  Z"
/>
<path fill="#000000" d="
  M 264.00 111.29
  Q 263.62 111.62 264.00 111.63
  Q 268.87 111.82 273.74 111.93
  A 0.25 0.19 1.4 0 0 274.00 111.74
  L 274.00 111.54
  Q 275.06 111.33 276.50 111.85
  A 0.39 0.35 32.6 0 1 276.67 112.46
  L 274.93 114.00
  A 1.30 0.56 12.7 0 1 274.01 114.17
  Q 272.30 114.00 271.96 115.75
  Q 271.28 115.87 271.25 116.50
  Q 270.61 130.74 271.25 147.00
  Q 271.34 149.26 274.00 149.69
  Q 274.16 149.71 274.92 150.00
  Q 275.50 150.23 275.79 149.50
  L 276.59 150.08
  A 0.44 0.41 -45.0 0 1 276.56 150.76
  Q 275.46 151.61 274.00 151.71
  Q 273.74 151.09 273.11 151.16
  Q 272.45 151.24 272.38 151.24
  Q 267.78 151.08 263.21 151.50
  Q 262.18 151.54 261.50 150.79
  Q 262.51 149.83 264.25 149.75
  Q 265.94 149.67 266.46 148.00
  Q 267.05 146.17 267.04 144.25
  Q 267.00 134.25 267.00 124.25
  Q 267.00 119.33 266.54 116.75
  Q 267.20 113.51 263.75 114.21
  Q 258.58 112.36 264.00 111.29
  Z"
/>
<path fill="#000000" d="
  M 175.75 111.54
  Q 179.51 112.65 183.25 111.54
  Q 188.47 112.01 189.50 112.25
  Q 191.03 112.60 190.06 113.60
  A 1.43 0.49 -2.0 0 1 189.19 113.93
  L 187.00 114.29
  Q 184.76 114.45 184.50 116.50
  Q 183.80 122.06 184.46 129.50
  Q 185.27 129.90 187.69 129.94
  Q 199.20 130.09 204.50 130.00
  Q 205.29 129.99 205.54 129.25
  Q 205.88 124.86 205.69 118.56
  Q 205.54 113.79 200.75 113.79
  Q 197.78 112.44 200.75 111.54
  Q 204.00 112.06 207.25 111.54
  L 214.20 112.22
  A 0.89 0.87 80.6 0 1 214.92 112.75
  Q 215.59 114.37 212.81 114.13
  Q 209.62 113.85 209.96 116.75
  Q 209.25 116.74 209.25 118.00
  Q 209.25 132.00 209.38 146.00
  Q 209.42 150.00 213.19 149.81
  Q 214.76 149.73 215.04 151.00
  Q 214.26 151.57 213.29 151.50
  Q 207.37 150.72 201.50 151.71
  L 199.75 151.04
  L 200.03 150.45
  A 0.83 0.76 10.7 0 1 200.75 150.00
  Q 204.61 149.90 205.36 146.90
  Q 205.45 146.53 205.61 142.07
  Q 205.79 137.46 205.58 133.12
  A 1.17 1.17 88.7 0 0 204.41 132.00
  Q 194.88 132.00 186.00 132.00
  Q 184.58 132.00 184.29 133.25
  Q 184.08 139.44 184.40 145.61
  Q 184.52 147.74 185.35 148.66
  Q 186.54 149.95 188.69 149.86
  Q 189.99 149.80 190.04 151.00
  Q 189.57 151.35 189.00 151.46
  Q 182.73 150.91 176.46 151.50
  L 174.75 151.04
  Q 174.95 150.83 175.03 150.57
  A 0.71 0.53 -81.0 0 1 175.56 150.06
  Q 177.40 149.99 178.96 149.00
  Q 179.90 148.58 179.79 147.50
  Q 180.47 147.38 180.50 146.75
  Q 181.14 132.72 180.50 116.75
  Q 180.39 114.06 177.50 114.04
  Q 175.90 114.17 175.25 113.75
  Q 173.03 112.30 175.75 111.54
  Z"
/>
<path fill="#000000" d="
  M 283.21 111.50
  Q 284.99 112.31 287.00 112.01
  Q 289.72 111.60 292.25 112.54
  L 313.46 142.50
  L 315.16 144.43
  Q 315.53 144.85 315.55 144.25
  Q 315.87 132.85 315.76 122.00
  Q 315.73 118.71 315.04 115.50
  Q 314.55 114.08 313.21 114.50
  Q 311.20 114.22 309.64 113.06
  A 0.65 0.58 32.4 0 1 309.42 112.29
  Q 309.90 111.40 311.21 111.50
  Q 312.87 112.17 314.60 112.05
  Q 316.95 111.88 317.93 111.92
  Q 319.99 112.02 322.00 111.54
  Q 322.91 111.46 323.42 112.03
  A 0.65 0.56 -46.0 0 1 323.38 112.83
  Q 322.01 114.40 319.75 114.54
  Q 318.30 114.69 318.25 115.75
  Q 317.75 126.99 318.00 151.71
  Q 315.65 151.40 313.94 149.31
  Q 311.29 146.09 310.71 145.25
  Q 310.83 144.85 310.44 144.31
  Q 307.04 139.72 293.04 120.00
  L 290.71 117.37
  Q 290.31 116.92 290.31 117.55
  Q 290.20 131.28 290.25 145.00
  Q 290.27 150.32 295.25 149.79
  Q 296.72 151.28 294.00 151.46
  L 282.50 151.29
  Q 282.01 151.37 281.75 151.04
  Q 282.34 149.66 284.00 149.81
  Q 285.23 149.91 285.96 149.00
  Q 286.90 148.58 286.79 147.50
  Q 287.14 147.61 287.34 147.45
  Q 287.50 147.33 287.51 147.00
  Q 287.91 135.36 287.77 123.71
  Q 287.77 123.62 287.83 120.28
  Q 287.88 117.16 287.19 115.31
  Q 286.62 113.80 284.96 114.25
  Q 282.89 114.24 282.06 113.44
  Q 279.95 111.41 283.21 111.50
  Z"
/>
<path fill="#cfcdcb" fill-opacity="0.988" d="
  M 168.04 112.75
  Q 166.84 113.14 166.04 114.10
  A 0.86 0.68 -60.4 0 1 165.26 114.42
  Q 164.02 114.14 163.75 112.96
  Q 165.47 113.50 166.88 112.53
  A 0.96 0.46 -39.5 0 1 167.70 112.33
  Q 167.92 112.46 168.04 112.75
  Z"
/>
<path fill="#5f5d5a" fill-opacity="0.992" d="
  M 292.54 112.25
  L 313.75 142.21
  Q 313.52 142.27 313.46 142.50
  L 292.25 112.54
  Q 292.48 112.48 292.54 112.25
  Z"
/>
<path fill="#8c9288" fill-opacity="0.992" d="
  M 150.25 113.29
  Q 141.29 117.03 139.93 126.74
  Q 139.39 130.61 139.71 134.46
  Q 140.09 138.82 141.77 141.77
  Q 144.56 146.66 150.25 148.79
  Q 149.82 149.13 149.25 149.04
  Q 142.15 146.14 140.19 139.81
  Q 136.45 127.79 142.81 117.81
  Q 145.22 114.03 150.25 113.29
  Z"
/>
<path fill="#acaea9" fill-opacity="0.988" d="
  M 164.75 119.04
  Q 161.62 115.20 156.96 113.50
  Q 162.71 113.69 164.75 119.04
  Z"
/>
<path fill="#8c9288" fill-opacity="0.992" d="
  M 200.75 113.79
  Q 205.54 113.79 205.69 118.56
  Q 205.88 124.86 205.54 129.25
  Q 205.39 128.90 205.04 128.75
  Q 205.02 123.80 204.96 118.84
  Q 204.93 116.73 203.87 115.64
  Q 202.63 114.36 200.75 113.79
  Z"
/>
<path fill="#acaea9" fill-opacity="0.988" d="
  M 177.50 114.04
  Q 180.39 114.06 180.50 116.75
  Q 181.14 132.72 180.50 146.75
  Q 180.47 147.38 179.79 147.50
  Q 180.32 128.58 179.75 117.50
  Q 179.65 115.50 177.50 114.04
  Z"
/>
<path fill="#acaea9" fill-opacity="0.988" d="
  M 266.54 116.75
  Q 265.62 114.97 263.75 114.21
  Q 267.20 113.51 266.54 116.75
  Z"
/>
<path fill="#acaea9" fill-opacity="0.988" d="
  M 286.79 147.50
  Q 287.36 128.52 286.75 117.50
  Q 286.67 115.97 284.96 114.25
  Q 286.62 113.80 287.19 115.31
  Q 287.88 117.16 287.83 120.28
  Q 287.77 123.62 287.77 123.71
  Q 287.91 135.36 287.51 147.00
  Q 287.50 147.33 287.34 147.45
  Q 287.14 147.61 286.79 147.50
  Z"
/>
<path fill="#cfcdcb" fill-opacity="0.988" d="
  M 187.00 114.29
  Q 184.76 116.67 185.00 120.50
  Q 185.08 121.79 184.96 128.25
  L 184.46 129.50
  Q 183.80 122.06 184.50 116.50
  Q 184.76 114.45 187.00 114.29
  Z"
/>
<path fill="#cfcdcb" fill-opacity="0.988" d="
  M 315.04 115.50
  Q 315.02 116.06 314.54 116.25
  L 313.21 114.50
  Q 314.55 114.08 315.04 115.50
  Z"
/>
<path fill="#cfcdcb" fill-opacity="0.988" d="
  M 319.75 114.54
  L 319.38 114.94
  A 1.36 0.81 -33.8 0 0 319.00 115.74
  Q 319.00 133.50 319.00 151.25
  Q 319.00 152.53 318.00 151.71
  Q 317.75 126.99 318.25 115.75
  Q 318.30 114.69 319.75 114.54
  Z"
/>
<path fill="#5f5d5a" fill-opacity="0.992" d="
  M 168.71 115.00
  Q 169.41 117.87 168.71 120.75
  Q 167.63 117.86 168.71 115.00
  Z"
/>
<path fill="#75726b" fill-opacity="0.992" d="
  M 315.04 115.50
  Q 315.73 118.71 315.76 122.00
  Q 315.87 132.85 315.55 144.25
  Q 315.53 144.85 315.16 144.43
  L 313.46 142.50
  Q 313.52 142.27 313.75 142.21
  Q 315.10 142.98 314.82 140.12
  Q 314.71 138.90 314.79 137.67
  Q 315.49 127.24 314.54 116.25
  Q 315.02 116.06 315.04 115.50
  Z"
/>
<path fill="#e8e8ed" fill-opacity="0.988" d="
  M 271.96 115.75
  Q 271.90 129.00 272.25 142.25
  Q 272.34 145.82 273.13 147.97
  A 1.29 1.04 6.3 0 0 273.78 148.62
  L 275.79 149.50
  Q 275.50 150.23 274.92 150.00
  Q 274.16 149.71 274.00 149.69
  Q 271.34 149.26 271.25 147.00
  Q 270.61 130.74 271.25 116.50
  Q 271.28 115.87 271.96 115.75
  Z"
/>
<path fill="#cfcdcb" fill-opacity="0.988" d="
  M 209.96 116.75
  L 210.25 147.51
  A 1.53 1.52 -5.6 0 0 212.06 148.99
  Q 213.93 148.64 215.36 149.89
  Q 216.40 150.80 215.04 151.00
  Q 214.76 149.73 213.19 149.81
  Q 209.42 150.00 209.38 146.00
  Q 209.25 132.00 209.25 118.00
  Q 209.25 116.74 209.96 116.75
  Z"
/>
<path fill="#e8e8ed" fill-opacity="0.988" d="
  M 293.04 120.00
  Q 292.98 120.23 292.75 120.29
  Q 291.07 119.52 291.06 121.44
  Q 291.02 133.96 291.21 140.18
  Q 291.21 140.24 291.16 142.82
  Q 291.11 145.58 292.23 148.12
  A 1.33 0.55 17.0 0 0 292.91 148.68
  L 295.25 149.79
  Q 290.27 150.32 290.25 145.00
  Q 290.20 131.28 290.31 117.55
  Q 290.31 116.92 290.71 117.37
  L 293.04 120.00
  Z"
/>
<path fill="#5f5d5a" fill-opacity="0.992" d="
  M 293.04 120.00
  Q 307.04 139.72 310.44 144.31
  Q 310.83 144.85 310.71 145.25
  L 292.75 120.29
  Q 292.98 120.23 293.04 120.00
  Z"
/>
<path fill="#f7f7f9" fill-opacity="0.988" d="
  M 184.96 128.25
  Q 185.34 129.22 186.42 129.12
  Q 187.54 129.01 187.60 129.01
  Q 196.33 129.19 205.04 128.75
  Q 205.39 128.90 205.54 129.25
  Q 205.29 129.99 204.50 130.00
  Q 199.20 130.09 187.69 129.94
  Q 185.27 129.90 184.46 129.50
  L 184.96 128.25
  Z"
/>
<path fill="#3a413d" fill-opacity="0.988" d="
  M 246.21 128.75
  L 250.46 139.00
  L 250.04 139.25
  Q 248.03 134.67 246.25 130.00
  Q 245.92 129.14 246.21 128.75
  Z"
/>
<path fill="#e8e8ed" fill-opacity="0.988" d="
  M 199.75 151.04
  Q 198.59 149.50 200.75 149.25
  Q 204.83 148.78 204.82 145.24
  Q 204.82 143.36 204.83 143.27
  Q 205.15 138.80 204.97 133.56
  A 0.55 0.53 88.4 0 0 204.43 133.03
  L 185.00 133.29
  L 184.29 133.25
  Q 184.58 132.00 186.00 132.00
  Q 194.88 132.00 204.41 132.00
  A 1.17 1.17 88.7 0 1 205.58 133.12
  Q 205.79 137.46 205.61 142.07
  Q 205.45 146.53 205.36 146.90
  Q 204.61 149.90 200.75 150.00
  A 0.83 0.76 10.7 0 0 200.03 150.45
  L 199.75 151.04
  Z"
/>
<path fill="#cfcdcb" fill-opacity="0.988" d="
  M 184.29 133.25
  L 185.00 133.29
  Q 184.82 139.53 185.11 145.76
  Q 185.27 149.18 188.22 149.03
  A 2.01 2.01 59.3 0 1 189.45 149.36
  Q 191.68 150.84 190.04 151.00
  Q 189.99 149.80 188.69 149.86
  Q 186.54 149.95 185.35 148.66
  Q 184.52 147.74 184.40 145.61
  Q 184.08 139.44 184.29 133.25
  Z"
/>
<path fill="#5f5d5a" fill-opacity="0.992" d="
  M 231.00 134.71
  L 244.00 134.96
  Q 244.48 134.94 244.52 135.27
  A 0.52 0.40 -2.9 0 1 244.01 135.70
  Q 237.70 135.84 231.39 135.70
  Q 231.03 135.69 230.76 135.55
  Q 229.67 135.00 231.00 134.71
  Z"
/>
<path fill="#3a413d" fill-opacity="0.988" d="
  M 248.46 145.25
  L 248.00 145.29
  L 245.23 138.70
  A 0.89 0.79 -7.8 0 0 244.50 138.21
  Q 237.14 137.65 229.79 138.25
  Q 230.10 137.01 231.41 137.14
  Q 232.45 137.24 232.61 137.24
  Q 238.65 137.11 244.68 137.53
  A 0.89 0.70 -6.6 0 1 245.42 137.99
  L 248.46 145.25
  Z"
/>
<path fill="#e8e8ed" fill-opacity="0.988" d="
  M 250.46 139.00
  Q 252.23 143.12 254.61 146.91
  Q 255.87 148.91 258.25 149.54
  Q 255.32 149.53 253.78 147.52
  Q 253.37 146.98 251.75 143.47
  Q 250.80 141.40 250.04 139.25
  L 250.46 139.00
  Z"
/>
<path fill="#e8e8ed" fill-opacity="0.988" d="
  M 165.75 142.71
  Q 166.14 142.94 165.75 143.50
  Q 159.65 152.25 149.25 149.04
  Q 149.82 149.13 150.25 148.79
  Q 160.04 150.67 165.75 142.71
  Z"
/>
<path fill="#8c9288" fill-opacity="0.992" d="
  M 224.46 142.75
  Q 224.06 148.28 218.99 149.86
  Q 218.60 149.98 218.13 150.34
  Q 217.74 150.64 217.29 150.75
  Q 217.53 149.51 220.83 148.37
  A 2.29 1.62 -2.9 0 0 222.01 147.44
  L 224.46 142.75
  Z"
/>
<path fill="#cfcdcb" fill-opacity="0.988" d="
  M 226.96 145.00
  Q 225.94 148.77 229.40 149.28
  A 0.74 0.37 -1.2 0 1 229.89 149.51
  L 230.04 149.75
  Q 224.06 150.29 226.96 145.00
  Z"
/>
<path fill="#cfcdcb" fill-opacity="0.988" d="
  M 248.00 145.29
  L 248.46 145.25
  Q 250.22 150.33 244.75 149.79
  Q 245.72 149.01 246.94 148.94
  A 0.83 0.71 7.4 0 0 247.64 148.48
  Q 248.25 146.98 248.00 145.29
  Z"
/>
<path fill="#75726b" fill-opacity="0.992" d="
  M 266.46 148.00
  Q 265.94 149.67 264.25 149.75
  Q 262.51 149.83 261.50 150.79
  Q 260.48 149.60 262.31 149.31
  Q 265.18 148.86 266.46 148.00
  Z"
/>
<path fill="#acaea9" fill-opacity="0.988" d="
  M 178.96 149.00
  Q 177.40 149.99 175.56 150.06
  A 0.71 0.53 -81.0 0 0 175.03 150.57
  Q 174.95 150.83 174.75 151.04
  Q 174.11 150.94 174.20 150.40
  Q 174.26 150.09 174.60 149.86
  Q 176.52 148.58 178.96 149.00
  Z"
/>
<path fill="#cfcdcb" fill-opacity="0.988" d="
  M 285.96 149.00
  Q 285.23 149.91 284.00 149.81
  Q 282.34 149.66 281.75 151.04
  Q 281.26 150.98 281.16 150.67
  A 0.88 0.53 -29.5 0 1 281.60 149.89
  Q 283.52 148.59 285.96 149.00
  Z"
/>
<path fill="#8c9288" fill-opacity="0.992" d="
  M 189.00 151.46
  Q 182.73 152.74 176.46 151.50
  Q 182.73 150.91 189.00 151.46
  Z"
/>
<path fill="#8c9288" fill-opacity="0.992" d="
  M 213.29 151.50
  Q 207.42 152.54 201.50 151.71
  Q 207.37 150.72 213.29 151.50
  Z"
/>
<path fill="#8c9288" fill-opacity="0.992" d="
  M 218.50 151.29
  L 228.50 151.54
  Q 223.46 152.80 218.50 151.29
  Z"
/>
<path fill="#8c9288" fill-opacity="0.992" d="
  M 256.00 151.71
  Q 251.25 152.40 246.50 151.71
  Q 246.57 151.25 247.50 151.25
  Q 251.50 151.25 255.50 151.15
  Q 256.09 151.14 256.00 151.71
  Z"
/>
<path fill="#acaea9" fill-opacity="0.988" d="
  M 274.00 151.71
  Q 268.58 152.53 263.21 151.50
  Q 267.78 151.08 272.38 151.24
  Q 272.45 151.24 273.11 151.16
  Q 273.74 151.09 274.00 151.71
  Z"
/>
<path fill="#8c9288" fill-opacity="0.992" d="
  M 282.50 151.29
  L 294.00 151.46
  Q 288.22 152.81 282.50 151.29
  Z"
/>
<path fill="#b7baaf" fill-opacity="0.992" d="
  M 85.25 163.96
  L 370.75 164.04
  Q 370.92 164.94 369.94 164.94
  Q 326.72 164.61 296.69 164.72
  Q 191.10 165.10 85.51 164.75
  Q 85.18 164.75 85.04 164.60
  Q 84.80 164.33 85.25 163.96
  Z"
/>
<path fill="#828971" fill-opacity="0.976" d="
  M 301.25 171.46
  Q 336.50 171.53 371.75 171.63
  Q 376.77 171.64 371.50 171.63
  Q 345.34 171.56 319.19 172.00
  L 231.19 172.00
  Q 224.56 171.37 217.94 172.00
  L 153.94 172.00
  L 78.25 171.75
  Q 78.34 171.25 79.50 171.25
  Q 167.25 171.24 254.99 171.47
  Q 260.31 171.49 275.00 171.28
  Q 288.13 171.10 301.25 171.46
  Z"
/>
<path fill="#75726b" fill-opacity="0.992" d="
  M 378.00 171.31
  L 378.00 172.00
  L 319.19 172.00
  Q 345.34 171.56 371.50 171.63
  Q 376.77 171.64 371.75 171.63
  Q 336.50 171.53 301.25 171.46
  L 378.00 171.31
  Z"
/>
<path fill="#75726b" fill-opacity="0.992" d="
  M 78.25 171.75
  L 153.94 172.00
  L 78.19 172.00
  L 78.25 171.75
  Z"
/>
<path fill="#75726b" fill-opacity="0.992" d="
  M 231.19 172.00
  L 217.94 172.00
  Q 224.56 171.37 231.19 172.00
  Z"
/>
</svg>
